<svg version="1.1" xmlns="http://www.w3.org/2000/svg" xmlns:xlink="http://www.w3.org/1999/xlink" width="1455.94963" height="842.19148" viewBox="0,0,1455.94963,842.19148"><g transform="translate(229,236.19148)"><g stroke-miterlimit="10"><path d="M-229,411.30853v-647.50001h1092v647.50001z" fill="#7af3ff" stroke="#000000" stroke-width="0"/><path d="M616.26579,367.71585l-0.06909,-0.48362l4.90717,-0.70102c0.12902,-0.02054 0.26133,-0.03121 0.39613,-0.03121c1.38071,0 2.5,1.11929 2.5,2.5c0,1.00919 -0.59797,1.87871 -1.45893,2.27359l-2.30804,1.11901l-0.01647,-0.03396l-0.06399,0.07122c-4.00454,1.60301 -8.22958,2.92991 -12.18905,4.6291c-0.14905,0.06396 -0.43366,0.21954 -0.80869,0.4248c-0.04668,0.76804 -0.08521,1.53935 -0.11499,2.31431c0.17103,0.04901 0.34242,0.09558 0.51435,0.13854l9.70143,2.42536c7.39369,1.8486 14.65409,4.03272 21.94334,6.23773c1.49807,0.45317 3.13631,0.51808 4.53278,1.2248c1.45383,0.73575 2.59313,1.89049 3.61962,3.18902l2.62536,1.96902c0.62044,0.45492 1.02328,1.18914 1.02328,2.01746c0,1.38071 -1.11929,2.5 -2.5,2.5h-3v-0.0659l-0.19142,0.05857c-21.31689,-3.25753 -42.64933,-6.4045 -63.47934,-12.07879c-7.80472,-1.57957 -15.80238,-0.73648 -23.71613,-1.94399c-24.30152,-3.70803 -48.46525,-10.61848 -72.48654,-15.8405c-21.7774,-4.73422 -67.16472,-11.12379 -84.51332,-22.54926c0,0 -2.08013,-1.38675 -0.69338,-3.46688c0.17405,-0.26108 0.35903,-0.46754 0.54944,-0.62899c-0.07892,-0.0654 -0.158,-0.13741 -0.23708,-0.21649c-1.76777,-1.76777 0,-3.53553 0,-3.53553c20.8267,-20.8267 37.91394,-45.05469 59.684,-64.98302c27.12102,-24.82661 55.106,-48.42613 94.27844,-38.57184c38.68183,9.82072 64.31034,32.21666 62.02413,74.4536c-0.60479,10.88628 -1.62783,21.63237 -3.76562,32.35061c-1.7323,8.68524 -3.65023,17.01333 -4.83718,25.55933c2.71556,-0.2292 5.41647,-0.3589 8.14979,-0.32507z" fill="#feff00" stroke="none" stroke-width="0.5"/><path d="M-59.48063,277.89863c-0.20779,0.18622 -0.5087,0.37973 -0.93209,0.50137c0.73533,0.0499 1.46731,0.05958 2.18287,0.0244c-0.07627,-0.00914 -0.15192,-0.01833 -0.22686,-0.02754c-0.11151,-0.0137 -0.4986,-0.20879 -1.02392,-0.49823zM-57.62846,268.4246c7.30322,-4.15588 14.50207,5.98035 9.11523,10.09681c-1.03268,0.78914 -2.23981,1.40147 -3.56309,1.85491c-3.71571,14.11158 7.1787,24.64055 25.13067,35.6221c37.49739,13.71446 57.01434,9.21203 84.44178,-9.57648c6.57182,-4.50089 12.60376,-9.2747 18.98783,-13.87141c5.02361,-3.61713 10.53974,-7.09303 14.949,-10.98637l0.60602,-0.74832c0.10375,-0.2813 0.37255,-0.57229 0.94815,-0.80926c0.36564,-0.18391 0.86993,-0.34108 1.51287,-0.32519c0.64294,-0.01589 1.14723,0.14128 1.51287,0.32519c0.56578,0.23293 0.83514,0.51805 0.94269,0.79486c11.44263,13.72518 25.74807,30.13336 55.54443,30.07696c2.84826,0.03574 5.29636,0.522 7.41234,-1.03452c6.78265,-4.98934 20.80102,-30.03345 26.74331,-37.78662c1.37105,-1.78887 6.3848,-10.70011 9.52458,-10.91655c2.39628,-0.16519 3.59694,1.92689 5.39541,2.89034c9.44908,7.07969 16.42419,15.27383 24.86089,22.79987c10.0019,8.92229 22.6043,16.42811 34.82525,24.24166c3.42659,2.19081 27.65401,11.80539 29.90531,10.82573c0.87932,-0.38264 -0.32071,-1.29981 -0.23234,-1.94896c0.39287,-2.88607 1.79754,-6.14329 3.06876,-8.93241c3.80387,-8.34583 9.25255,-16.4804 13.63019,-24.72741c4.2329,-7.97403 7.63301,-16.5212 13.8663,-24.01638l1.73971,-2.08556c0.40086,-0.50686 1.26228,-0.85738 2.26029,-0.85738c0.99801,0 1.85943,0.35052 2.26029,0.85738l2.21185,2.65155l-0.19236,0.05765c17.26083,15.22728 24.06033,31.70563 50.11818,45.55603c3.73705,1.99109 7.47528,3.98138 11.21114,5.97327c7.99263,4.26152 17.35591,8.14791 26.41231,11.56803c0.6154,0.2324 1.33221,0.85062 1.93396,0.60572c5.55912,-2.26247 13.75289,-20.90289 16.01236,-25.16874c4.51347,-8.52137 8.34884,-17.1632 12.19332,-25.80117c0.83869,-1.88441 2.20118,-9.34298 8.90444,-7.16584c2.96865,0.96418 16.87157,19.03866 19.85121,21.94578c21.37192,16.48737 43.23362,30.96614 72.33107,42.63921c4.56097,1.87741 16.29846,4.27481 21.96168,3.08092c3.36246,-0.70885 31.44762,-31.02598 36.59363,-35.46065c12.0369,-10.3714 24.28224,-20.55135 37.79013,-30.25803l2.32811,-2.02382c0.44852,-0.40144 1.21212,-0.66572 2.07871,-0.66572c1.38071,0 2.5,0.6709 2.5,1.49849v2.39759h-1.30279c-0.51361,4.41125 -3.82263,8.8407 -1.76409,13.44186c6.14229,13.72897 35.44329,15.26308 54.50134,15.62944c3.06258,-0.15452 6.29828,0.2044 9.19458,-0.41193c1.3705,-0.29164 2.35494,-1.02363 3.55566,-1.51546c1.20376,-0.49308 2.69707,-0.78072 3.65653,-1.43874c0.95946,-0.65803 1.24612,-1.58028 1.8891,-2.36462c3.40712,-4.15626 2.95985,-8.11793 3.27183,-12.61366c0.58127,-8.37637 0.93217,-16.69571 0.9895,-25.07807c-0.00948,-0.07825 -0.01034,-0.16063 0.00159,-0.24524c0.00448,-0.72839 0.00675,-1.45727 0.00675,-2.18671v-0.5994c0,0 0,-1.49849 2.5,-1.49849c2.5,0 2.5,1.49849 2.5,1.49849v0.5994c0,0.70703 -0.00211,1.41354 -0.00631,2.1196l0.27407,0.41719c2.32793,1.40869 2.93702,1.59234 4.59932,3.58656c0.66949,0.80318 0.7121,1.78863 1.57425,2.52285c0.54777,0.46649 1.63342,0.586 2.43613,0.89245c3.95404,1.50949 7.78369,2.92134 11.99677,4.16304c9.4072,2.25468 26.11736,4.10089 32.51439,8.69301c9.56798,6.86837 7.61137,28.47774 7.61137,37.54507c0,11.04658 1.93105,47.74108 -4.29009,55.8452c-1.25556,1.63559 -3.83917,2.76986 -5.80057,4.13345c-12.62023,2.64707 -29.2646,0.5215 -42.47507,0.26029c-18.19493,-0.35976 -36.63516,-0.17363 -54.8033,0.43137c-33.05586,1.08773 -66.59234,6.90317 -98.69129,11.43024c-32.96133,4.64502 -66.89779,9.89019 -99.01658,16.30688c-20.42813,4.08113 -41.0295,9.15169 -61.97596,12.16372c-11.9885,1.7239 -24.43267,2.35817 -36.36167,4.25659c-33.07555,5.25315 -68.18369,7.22209 -101.79849,11.30339c-20.96193,2.54259 -41.89792,8.33854 -62.95515,10.02881c-13.12112,1.05323 -26.5682,-0.64019 -39.38877,-2.03716c-33.67609,-4.80219 -66.81211,-11.50143 -100.18497,-17.14347c-31.83098,-5.38137 -65.91183,-11.2652 -95.57118,-20.13346c-31.82334,-9.53742 -59.38015,-19.23462 -85.35861,-33.97431c-18.89554,-17.64602 -30.08818,-38.17883 -17.1199,-58.86509c5.35796,-6.43868 11.09275,-12.50059 19.9426,-17.46856c7.26039,-4.07571 16.62076,-7.62634 24.03768,-11.97804c-4.06989,-1.63869 -7.0255,-4.1064 -7.15641,-6.87705c-0.66855,-1.20218 -2.4953,-3.64876 -0.43983,-4.80501c1.65372,-0.93026 4.34697,-0.81275 6.58962,-1.0151c4.51941,-0.40779 9.39324,0.19226 13.18947,1.78742zM-56.08732,275.31452c-0.23491,-0.29864 -0.48709,-0.7064 -0.76993,-1.15125c-0.22284,0.24404 -0.45209,0.48454 -0.68747,0.72165c0.57234,0.42825 1.27588,1.17224 1.86089,1.19769c0.05781,-0.13934 0.11686,-0.27898 0.17716,-0.41894c-0.20942,-0.11028 -0.48357,-0.22573 -0.58066,-0.34916zM-54.12695,270.64042c0.33276,0.32305 0.663,0.67437 0.97556,1.03394c0.09608,-0.05584 0.20294,-0.10926 0.32126,-0.1574c-0.38345,-0.38946 -0.8257,-0.69781 -1.29682,-0.87654z" fill="#006eff" stroke="none" stroke-width="0.5"/><path d="M373.09724,236.02806c-4.91412,0.94677 -8.59533,1.59414 -13.59724,1.5893c-2.87689,-0.00279 -5.80283,0.2364 -8.44012,-1.45646c-1.19599,-0.7677 -1.56607,-2.38147 -2.49323,-3.45857c-1.03375,-1.20091 -2.2481,-2.23369 -3.36995,-3.35274c-3.76047,-3.7511 -7.38585,-7.48124 -10.65762,-11.68149c-0.64553,-0.82873 -5.00681,-6.47673 -5.43181,-7.82628c-1.42557,-4.52681 1.50953,-10.99244 2.96425,-15.32961l0.024,-0.12001c-11.48917,9.35422 -45.5496,-6.81889 -51.97712,-16.34453c-2.02195,-2.99655 -6.46708,-25.11195 -2.99609,-27.01645c2.09731,-1.15077 4.63881,1.17191 6.95821,1.75787c11.22216,4.87632 22.03742,23.79138 25.56343,25.10535c2.17344,0.80993 5.68809,3.8933 6.71751,1.81481c0.46038,-0.92955 -1.6685,-1.30045 -2.22455,-2.17614c-7.24158,-11.40435 -15.31549,-22.27449 -24.76354,-32.10142c-2.27256,-6.49025 -5.16591,-20.24799 -1,-26.62866c4.79196,-7.33956 40.12117,-4.23114 44.66012,14.94504c7.53647,-15.10952 17.25295,-29.37986 26.53315,-43.21568c1.50258,-0.94938 2.88607,-3.57565 4.50774,-2.84815c2.19723,0.9857 2.38802,4.19088 3.37846,6.38597c1.59337,3.53133 3.92244,8.77079 4.50704,12.60109c0.05239,0.34328 0.04012,9.84544 0.04012,10.44606c0,8.26009 -0.59684,15.60666 -3.14651,23.33927c15.62363,-5.20798 39.52569,1.26895 51.96084,9.5341c18.36097,10.48464 56.46937,35.81718 67.61903,52.54165c13.5402,13.45801 28.51441,30.21237 28.56664,50.58497c0.02408,9.39079 3.07404,19.76415 -9.45671,19.3097c-4.96434,-4.5442 -6.68455,-8.50742 -6.54329,-15.3097c0.02741,-1.32014 -0.26539,-2.71741 0.1903,-3.95671c0.32537,-0.88488 1.33333,-1.33333 2,-2l-0.1903,-2.04329c0,0 0,-0.00415 0.00017,-0.01211c-3.16114,-6.22728 -5.67844,-12.85345 -9.603,-18.63581c-10.99306,-16.19692 -23.81559,-30.73033 -37.61785,-44.53845c-17.25489,-15.52393 -45.19307,-35.96872 -69.91628,-32.34013c-6.19331,0.90898 -12.51894,4.1095 -18.29072,6.39461c-2.58652,1.09694 -5.40383,1.75123 -7.77006,3.26593c-2.17088,1.38966 -3.74353,3.59946 -5.93388,4.95822c-2.50294,1.55267 -5.06808,3.11375 -7.13614,5.21104l-0.20471,0.20471c8.56093,15.76126 50.01974,46.9357 26.56972,62.40269z" fill="#6aff00" stroke="none" stroke-width="0.5"/><path d="M-137.05037,606v-255h1364v255z" fill="#006eff" stroke="#000000" stroke-width="0"/></g></g></svg>