<svg version="1.1" xmlns="http://www.w3.org/2000/svg" xmlns:xlink="http://www.w3.org/1999/xlink" width="68.05421" height="78.58707" viewBox="0,0,68.05421,78.58707"><g transform="translate(-140.20256,-260.80233)"><g stroke="none" stroke-width="0.5" stroke-miterlimit="10"><path d="M164.67467,286.32852c0.13101,-0.13989 0.26023,-0.28516 0.38543,-0.43514c0,0 0.58922,-0.65223 -0.10001,-1.22659c-0.68923,-0.57436 -1.26156,0.11397 -1.26156,0.11397c-0.75184,0.9039 -1.59452,1.61229 -2.50598,2.19274c-1.82967,0.51203 -3.70199,1.00778 -5.55171,1.23069c-2.75699,0.33224 -5.55071,0.21065 -8.3173,0.36382c-1.46543,0.08113 -2.94009,0.31941 -4.39799,0.48511c-0.35979,0.04089 -0.77792,0.23928 -1.11828,0.11572c-0.15982,-0.05802 0.26436,-0.23925 0.31504,-0.40155c0.23873,-0.76442 0.28138,-1.58076 0.49253,-2.35325c0.49525,-1.24487 1.18457,-2.8606 2.03466,-3.89728c1.73986,-2.12175 16.52373,-3.64075 24.22679,-5.25487c0.36644,-0.02819 0.73414,-0.05633 1.10058,-0.08451l0.01736,0.17321l1.77754,-0.17731c0.4583,-0.04019 0.81019,-0.38583 0.81019,-0.85457c0,-0.49549 -0.4006,-0.89697 -0.89609,-0.89697l-1.72612,0.00019v0.01169l-0.0344,-0.01103c-0.57596,0.0443 -1.15012,0.08864 -1.72608,0.13294c-1.49238,0.05457 -1.26087,-0.62657 -2.64667,-0.92821c-2.16026,-0.47022 -4.74519,-0.14405 -6.95259,-0.13433c-3.64645,0.01605 -7.47847,1.22761 -10.9389,1.23352c-0.21193,0.00036 0.35875,-0.26239 0.43644,-0.45956c0.31007,-0.78693 0.48788,-1.64442 0.94316,-2.35725c0.93032,-1.45659 1.7037,-2.76517 3.10345,-3.83062c7.94421,-6.97615 21.27188,-7.82761 31.07422,-4.98101c3.56472,1.58756 8.08002,1.10722 10.62941,4.48639c1.78486,2.36581 1.82848,5.81518 1.81858,8.73806c-1.55633,0.86024 -3.46817,3.94919 -4.49393,6.57771c-0.26209,-1.99176 -0.75396,-3.94625 -2.09832,-5.41202c-0.98211,-1.07079 -2.53947,-1.64359 -3.69263,-2.48627c-1.09253,-0.79837 -2.38205,-2.369 -3.97936,-1.87805c-0.51388,0.15794 -0.82739,0.62691 -1.25138,0.95743c-3.29436,7.28591 -5.06286,20.10676 4.58589,22.97737c2.77188,0.02208 5.37305,-0.31713 8.11207,-0.53306c0.16739,-0.0132 0.42557,-0.01226 0.5302,0.11907c0.04909,0.06161 0.09606,0.12933 0.14098,0.20245c0.00487,0.14539 0.05294,0.30834 0.1706,0.48484c0.04102,0.06153 0.08372,0.11472 0.12757,0.16032c0.84643,2.38941 0.50237,7.43375 -0.63431,8.91386c-0.87359,1.13753 -2.36804,1.96 -3.54053,2.7438c-2.06785,1.82171 -5.90406,0.22381 -7.69651,2.28405c-0.54608,0.62766 1.79537,9.54106 -1.59742,14.07379l-0.02936,0.01258c-3.67508,-0.60152 -9.74776,-0.71286 -11.22447,-0.72307c-0.06145,-0.01399 -0.12772,-0.02075 -0.19853,-0.01774c-0.04932,-0.46951 -0.11637,-0.92687 -0.17436,-1.33941c-0.53253,-3.66036 -0.0725,-8.30035 -5.55579,-7.67085c-2.02992,0.23304 -9.94201,7.16615 -9.84649,0.67228c0.62835,-4.62429 13.7294,-2.28216 15.58882,-4.15411c0.51554,-0.51901 0.84227,-2.20728 1.03719,-3.67717l0.07488,0.0225l0.39203,-1.30909c0.02845,-0.08746 0.0488,-0.14126 0.0488,-0.23821c0,-0.49549 -0.40289,-0.89705 -0.89839,-0.89705c-0.11831,0 -0.23181,0.02293 -0.33524,0.06454l-1.0988,0.41191l0.00032,0.00085l-0.00368,0.00042c-2.79034,1.07321 -5.59795,2.17955 -8.41863,3.15176c-0.49468,0.1705 -2.25151,0.41844 -2.61915,0.51851c-1.85999,0.50625 -3.46051,0.84623 -5.3742,1.17696c-0.54387,0.094 -1.05118,0.41204 -1.6031,0.41584c-0.1272,0.00088 0.27086,-0.05951 0.34522,-0.16272c0.14545,-0.20187 0.13115,-0.49029 0.27261,-0.69499c0.35509,-0.51384 0.84026,-0.50238 1.40745,-0.62958c4.35917,-1.307 9.22076,-1.96224 12.17051,-5.91427c1.20491,-1.61431 1.84063,-6.41649 -0.19095,-7.94729c-0.98372,-0.74124 -5.67628,1.74684 -6.72935,2.2139c-2.27375,1.0128 -11.05481,7.05879 -12.8243,6.48772c-0.12812,-0.04135 0.20138,-0.20213 0.22667,-0.33435c0.24353,-1.27333 0.21526,-2.48991 0.12967,-3.7877c-0.13065,-1.98095 0.57835,-3.83536 1.61462,-5.48285c2.79682,-5.61462 9.59361,-5.3079 14.81242,-7.92338c0.69359,-0.1915 1.38486,-0.38908 2.06519,-0.57383l0.9374,-0.26863c0,0 0.86493,-0.24776 0.61845,-1.11042c-0.06422,-0.22477 -0.17038,-0.37418 -0.2921,-0.47234z" fill="#00c3e0"/><path d="M190.45052,317.282c1.9702,0.07297 3.91741,0.07944 5.85562,0.52277c3.31064,0.75725 7.43084,4.06737 10.15671,0.29343c-0.60994,-0.74977 -1.15563,-2.29027 -2.08754,-2.70181c-2.93676,-1.29691 -16.52839,-0.5591 -20.11915,1.01766c0.00936,0.1785 0.01725,0.34726 0.02466,0.50119c0.0062,0.12869 0.00735,0.30333 0.00315,0.51587c2.07549,-0.29846 4.06259,-0.22704 6.16654,-0.14911zM205.16065,313.78303c1.53215,0.74571 2.42842,2.84707 3.09612,4.27619c-0.86676,1.95643 -2.60458,3.76262 -4.98175,3.70786c-2.68267,-0.0618 -4.86515,-1.64852 -7.39052,-2.2182c-1.82474,-0.41163 -3.65499,-0.40544 -5.50855,-0.47408c-2.11298,-0.07825 -4.09962,-0.16218 -6.19511,0.18794l-0.00226,0.00003c-0.21862,2.5802 -0.78373,6.34421 -1.82355,7.72503c0.47596,0.17877 0.77306,0.38354 0.82444,0.61799c0.0038,0.01733 0.00735,0.03456 0.01066,0.05169c0.84521,0.29701 1.68872,0.55047 2.588,0.81774c1.70509,0.50676 3.32041,1.55093 4.95084,2.24945c0.43631,0.18693 3.17644,1.31652 3.45962,1.63512c0.04418,0.04971 0.08599,0.10099 0.1257,0.15366l0.01369,-0.01065l0.92549,1.18992c0.1214,0.15304 0.1939,0.34661 0.1939,0.55712c0,0.49549 -0.40168,0.89717 -0.89717,0.89717c-0.06462,0 -0.12764,-0.00683 -0.18838,-0.01981l-1.29247,-0.25013l0.00094,-0.00484l-0.01849,0.00126c-4.44394,-1.04582 -9.00365,-1.30454 -13.50281,-2.12631c-0.28653,-0.0252 -0.82782,-0.02189 -1.39766,-0.08961c2.55874,1.49073 5.60495,4.25619 2.11705,6.60871c-0.88364,0.596 -11.63139,-1.15881 -16.43279,-1.28292l-0.50162,0.25081c-0.12467,0.06564 -0.26669,0.10279 -0.41737,0.10279c-0.49549,0 -0.89717,-0.40168 -0.89717,-0.89717c0,-0.18852 0.05815,-0.36346 0.15749,-0.50787l0.79068,-1.18602c1.08229,-1.59472 1.82765,-3.43846 2.5843,-5.18187c0.4104,-0.94562 1.29362,-1.70624 1.53782,-2.74741c0.2201,-0.93843 -0.00558,-2.19507 -0.14344,-3.14265c-0.18829,-1.33958 0.38819,-4.76282 -1.00979,-5.68003c-3.27485,-2.14862 -14.31984,9.22741 -14.41292,-1.71263c0.38748,-1.65219 1.73112,-2.79332 3.47797,-3.58816c-0.95778,0.21435 -1.91881,0.40007 -2.96008,0.57251c-0.45126,0.07473 -0.88932,0.3344 -1.34343,0.27958c-0.73359,-0.08857 -1.64264,-0.11925 -2.10469,-0.69588c-0.35605,-0.44435 0.04927,-1.14539 0.1865,-1.69801c0.38779,-1.5616 1.46065,-2.04743 2.86711,-2.42535c3.73984,-1.12261 7.00611,-1.64345 10.11394,-4.15617c1.764,-1.42622 2.48095,-4.25012 1.53463,-6.4133c-0.23039,-0.52664 -0.97412,0.62331 -1.50778,0.83694c-1.23359,0.49383 -2.47689,0.90835 -3.69043,1.4489c-3.63415,1.61182 -8.28242,6.33419 -12.29446,6.52706c-4.85408,0.23336 -2.44582,-9.54664 -0.81471,-12.17194c1.6321,-3.25257 4.31291,-4.61452 7.25349,-5.57732c-1.6059,0.04667 -3.21508,0.04523 -4.81474,0.13263c-1.46628,0.08012 -3.07828,0.61329 -4.53468,0.49046c-0.8457,-0.07133 -1.85295,0.00112 -2.48174,-0.5689c-0.42628,-0.38643 -0.06808,-1.15035 -0.04915,-1.7254c0.03327,-1.01041 0.29964,-1.70145 0.57123,-2.69919c0.57477,-1.43049 1.42332,-3.48269 2.48563,-4.61222c1.46813,-1.56104 14.07011,-4.08668 21.68807,-4.89446c-0.01435,-0.00284 -0.02884,-0.00563 -0.04347,-0.00838c-3.72892,-0.69923 -8.90059,-0.37089 -12.62396,0.19069c-1.27147,0.19177 -5.08891,1.26747 -6.15131,0.35978c-1.79741,-1.53567 3.45583,-8.1922 4.72914,-9.17636c8.43206,-7.38812 22.41379,-8.32228 32.81016,-5.27768c4.69112,2.08078 10.74898,1.51729 12.64063,7.4788c0.82152,2.589 0.9582,5.14106 0.9723,7.83089c0.21005,0.33362 0.38534,0.80692 0.5161,1.44202c0.26596,1.29182 0.28524,2.98363 0.14115,4.28525c-0.15445,1.39522 -0.3339,2.84636 -0.53092,4.2479c-0.31832,2.54659 -0.5989,5.06672 -1.21882,7.55618l-0.13021,0.45596c11.25302,-5.72696 10.69174,9.15886 0.13037,7.65009c-0.11311,0.0003 -0.22622,0.00059 -0.33933,0.00088c-0.19186,2.12411 -0.71562,4.12272 -1.40293,5.08962c-0.91668,1.28957 -2.6159,2.25072 -3.90434,3.10707c-2.31748,1.85404 -4.89516,0.5393 -7.19402,1.70749c-0.14257,0.07245 0.30651,0.16725 0.35893,0.31833c0.09713,0.27992 0.16981,0.62029 0.22524,0.98457c4.83775,-1.62562 17.85471,-2.36792 21.06971,-0.80317zM169.52516,306.52236c-5.42643,-3.6833 -3.36765,-11.55968 1.67805,-14.73957c1.87575,-1.18213 4.59869,-1.08264 6.75568,-1.07379c-1.20209,-4.98646 0.22132,-11.27472 2.18176,-15.61049c0.424,-0.33052 0.75812,-0.83361 1.272,-0.99156c1.59731,-0.49094 2.88965,1.08179 3.98217,1.88016c1.15315,0.84268 2.71285,1.41796 3.69495,2.48875c1.34437,1.46577 1.8386,3.42407 2.10069,5.41583c1.02576,-2.62852 2.90279,-5.69819 4.45912,-6.55843c0.0099,-2.92288 -0.03078,-6.36867 -1.81565,-8.73447c-2.5494,-3.37918 -7.0594,-2.89515 -10.62412,-4.48272c-9.80234,-2.84659 -23.11056,-1.99643 -31.05477,4.97972c-1.39975,1.06545 -2.17059,2.37207 -3.10091,3.82866c-0.45528,0.71283 -0.63194,1.56918 -0.94201,2.35612c-0.07769,0.19718 -0.67781,0.43302 -0.46587,0.43266c3.46043,-0.00591 7.29833,-1.22198 10.94478,-1.23803c2.2074,-0.00972 4.79818,-0.33779 6.95844,0.13244c1.3858,0.30165 1.15688,0.98254 2.64925,0.92797c0.57596,-0.0443 1.15192,-0.08861 1.72788,-0.13291l0.03443,0.01103v-0.01169h1.72788c0.49549,0 0.89717,0.40168 0.89717,0.89717c0,0.46874 -0.35947,0.85352 -0.81777,0.89371l-1.77557,0.17756l-0.01732,-0.17321c-0.36644,0.02819 -0.73288,0.05638 -1.09932,0.08456c-7.70306,1.61412 -22.46892,3.12209 -24.20878,5.24384c-0.85009,1.03668 -1.53821,2.64943 -2.03346,3.8943c-0.21115,0.77249 -0.25335,1.58714 -0.49208,2.35156c-0.05069,0.1623 -0.4748,0.3432 -0.31497,0.40122c0.34037,0.12356 0.71945,-0.08288 1.07923,-0.12377c1.4579,-0.1657 2.93287,-0.40519 4.39829,-0.48632c2.76659,-0.15317 5.56157,-0.03492 8.31856,-0.36716c1.84972,-0.22291 3.72593,-0.7241 5.55559,-1.23613c0.91146,-0.58045 1.75908,-1.29244 2.51092,-2.19634c0,0 0.57436,-0.68923 1.26358,-0.11487c0.68923,0.57436 0.11487,1.26358 0.11487,1.26358c-0.1252,0.14998 -0.25339,0.29478 -0.3844,0.43467c0.12172,0.09815 0.22777,0.24762 0.29199,0.47239c0.24647,0.86265 -0.61618,1.10912 -0.61618,1.10912l-0.9356,0.2673c-0.68033,0.18475 -1.36869,0.37933 -2.06228,0.57083c-5.21882,2.61549 -12.01144,2.29454 -14.80826,7.90916c-1.03627,1.64749 -1.74613,3.49774 -1.61548,5.47869c0.0856,1.29779 0.11287,2.51187 -0.13066,3.7852c-0.02529,0.13223 -0.35485,0.29287 -0.22674,0.33422c1.7695,0.57106 10.51453,-5.45784 12.78828,-6.47063c1.05307,-0.46706 5.78036,-2.97448 6.76409,-2.23325c2.03157,1.53079 1.37177,6.36244 0.16686,7.97676c-2.94975,3.95203 -7.81787,4.603 -12.17704,5.91c-0.56719,0.1272 -1.02411,0.0876 -1.3792,0.60144c-0.14145,0.20469 -0.12732,0.49295 -0.27277,0.69482c-0.07436,0.10321 -0.47236,0.16367 -0.34516,0.16279c0.55192,-0.0038 1.05875,-0.32231 1.60262,-0.41631c1.91369,-0.33074 3.51186,-0.67262 5.37185,-1.17887c0.36764,-0.10006 2.12278,-0.34906 2.61746,-0.51956c2.82067,-0.97221 5.61953,-2.08103 8.40987,-3.15424l0.00367,-0.00042l-0.00032,-0.00085l1.09711,-0.41192c0.10343,-0.04161 0.21639,-0.06452 0.33471,-0.06452c0.49549,0 0.89717,0.40168 0.89717,0.89717c0,0.09695 -0.01538,0.19031 -0.04383,0.27777l-0.39275,1.30917l-0.07498,-0.02249c-0.19492,1.46989 -0.52307,3.15823 -1.0386,3.67724c-1.85942,1.87195 -14.9718,-0.47358 -15.60015,4.15072c-0.09552,6.49387 7.83253,-0.47512 9.86245,-0.70816c5.48329,-0.62951 5.01842,4.00989 5.55095,7.67025c0.05799,0.41254 0.12493,0.8699 0.17425,1.33941c0.07082,-0.003 0.13695,0.00376 0.19841,0.01775c1.47671,0.01022 7.54284,0.12275 11.21791,0.72427l0.02935,-0.01258c3.39279,-4.53273 1.04631,-13.44343 1.59238,-14.07109c0.22359,-0.257 0.47892,-0.45701 0.75861,-0.61379c-4.54538,-1.06941 -9.7812,-1.90463 -13.16831,-5.28183zM178.20173,292.50388c-1.77027,0 -4.46297,-0.24743 -6.02708,0.78755c-3.96662,2.62471 -6.07127,8.86592 -1.51189,11.84329c3.38869,3.39892 8.88401,4.02627 13.33897,5.14001l0.44946,0.20084c0,0 0.50785,0.25392 0.51352,0.76177c1.65127,-0.13889 3.45681,-0.03709 4.66254,-1.0993c1.17248,-0.78381 2.66528,-1.60363 3.53886,-2.74116c1.13668,-1.48012 1.47869,-6.51827 0.63226,-8.90768c-0.04385,-0.0456 -0.08656,-0.09868 -0.12758,-0.16021c-0.11767,-0.1765 -0.16578,-0.33909 -0.17065,-0.48448c-0.04492,-0.07311 -0.09191,-0.14069 -0.141,-0.2023c-0.10463,-0.13133 -0.32324,-0.12733 -0.49063,-0.11414c-2.73902,0.21594 -5.37945,0.54843 -8.15133,0.52635c-3.21526,-0.95657 -5.16167,-3.01566 -6.20595,-5.60587c-0.16943,0.05533 -0.30948,0.05533 -0.30948,0.05533zM176.11235,331.27769c-0.082,-1.14737 2.64803,-2.28093 4.24013,-2.82004l-0.35853,-0.15366c-0.09954,-0.04001 -0.19025,-0.09735 -0.2684,-0.16828c-1.11989,-0.11563 -2.4205,-0.29924 -2.72005,-0.29898c-1.90322,0.00164 -3.79553,-0.1305 -5.69123,-0.20907c0.60852,0.41377 1.23594,0.80291 1.82561,1.23947c1.15981,0.85866 1.88286,2.05541 3.07527,2.85472c0.00585,0.00211 0.01173,0.00424 0.01764,0.00639c-0.06625,-0.13148 -0.1083,-0.28083 -0.12043,-0.45055zM187.78249,279.70495c-0.90996,-0.97684 -2.41943,-1.5209 -3.48242,-2.29616c-0.74573,-0.54387 -1.84154,-2.15695 -2.72069,-1.23803c-2.37674,6.06431 -4.83065,17.61086 3.39835,20.10833c2.07048,-0.0211 7.37444,-1.20802 9.35778,-0.09943c-0.04393,-0.24374 0.01661,-0.45561 0.01661,-0.45561l0.26184,-0.91599c0.60571,-2.41229 0.86499,-4.86108 1.17363,-7.33022c0.26075,-1.79302 0.52875,-3.79424 0.52372,-5.59623c-0.00203,-0.72728 -0.35681,-2.00174 -0.35169,-2.88093c-0.0376,-0.03164 -0.07068,-0.06589 -0.09979,-0.10168c-0.08768,0.23625 -0.19209,0.50521 -0.26783,0.64172c-0.55397,0.99854 -1.05998,1.99201 -1.56784,3.00664c-0.82892,1.65607 -1.55771,3.33934 -2.33257,5.00295l0.02973,0.00297l-0.13193,1.31927c-0.04019,0.4583 -0.42497,0.81777 -0.8937,0.81777c-0.49549,0 -0.89717,-0.40168 -0.89717,-0.89717v-0.88857c-0.3184,-2.56629 -0.10726,-6.15059 -2.01602,-8.19963zM182.56186,329.32872c-1.85831,1.60477 -6.73121,1.387 -2.78327,1.63887c3.53336,0.63964 7.103,0.94603 10.62632,1.54639c-1.05873,-0.47014 -2.11476,-0.93623 -3.1598,-1.44531c-1.51,-0.73558 -3.10624,-1.18991 -4.68325,-1.73995zM168.88065,328.02057c-0.01076,0.05696 -0.02264,0.11317 -0.0357,0.16854c-0.28929,1.22677 -1.18962,2.00605 -1.65212,3.10082c-0.61763,1.46199 -1.26841,2.95675 -2.06545,4.35847c3.98937,-0.47066 14.29167,4.24842 14.3038,0.59515c0.00226,-0.68042 0.19907,-0.88117 -0.30013,-1.39218c-0.87159,-0.89221 -2.59652,-1.11016 -3.72766,-1.5293c-1.29151,-0.85788 -2.06768,-2.09626 -3.30462,-2.99351c-1.07281,-0.7782 -2.21525,-1.44244 -3.21813,-2.30799zM168.11269,309.575c-2.23251,0.86325 -4.47371,1.74809 -6.72815,2.54601c1.28865,-0.15585 2.49412,-0.23992 3.46215,-0.2982c0.9075,-0.05463 2.3368,1.1341 2.7103,0.30523c0.38811,-0.8613 0.18065,-1.78413 0.55569,-2.55304z" fill="#000000"/><path d="M184.26404,317.43134c0.0042,-0.21254 0.00306,-0.38811 -0.00314,-0.5168c-0.00742,-0.15393 -0.01525,-0.32358 -0.02461,-0.50208c3.59075,-1.57676 17.22176,-2.3171 20.15853,-1.0202c0.93191,0.41154 1.47797,1.95759 2.08792,2.70736c-2.72587,3.77395 -6.84836,0.47177 -10.159,-0.28548c-1.93821,-0.44333 -3.92296,-0.45925 -5.89316,-0.53222c-2.10395,-0.07793 -4.09106,-0.14904 -6.16654,0.14942z" fill="#00c3e0"/><path d="M187.26502,331.06968c1.04504,0.50908 2.10045,0.97923 3.15917,1.44937c-3.52332,-0.60036 -7.13218,-0.91162 -10.66554,-1.55125c-3.94794,-0.25187 0.93004,-0.04761 2.78835,-1.65237c1.57701,0.55005 3.20802,1.01868 4.71802,1.75426z" fill="#e04242"/><path d="M172.09719,330.30869c1.23694,0.89725 2.0344,2.15862 3.3259,3.0165c1.13114,0.41914 2.8555,0.63963 3.72709,1.53184c0.4992,0.51101 0.30125,0.71471 0.29899,1.39514c-0.01213,3.65327 -10.35097,-1.06713 -14.34034,-0.59647c0.79704,-1.40171 1.44728,-2.90953 2.06492,-4.37152c0.4625,-1.09477 1.37002,-1.88429 1.65931,-3.11106c0.01306,-0.05537 0.02529,-0.11184 0.03605,-0.1688c1.00287,0.86555 2.15528,1.52617 3.22809,2.30436z" fill="#e04242"/><path d="M189.81324,287.91801l-0.00291,0.89119c0,0.49549 0.37736,0.86558 0.87286,0.86558c0.46874,0 0.84994,-0.35573 0.89013,-0.81404l0.12932,-1.31445l-0.02972,-0.00301c0.77486,-1.66361 1.50498,-3.33 2.3339,-4.98607c0.50786,-1.01463 1.01593,-2.00512 1.5699,-3.00367c0.07574,-0.13652 0.18053,-0.40503 0.26822,-0.64128c0.02911,0.03579 0.09212,0.0437 0.12972,0.07533c-0.00511,0.87919 0.35249,2.15789 0.35452,2.88517c0.00503,1.80199 -0.26121,3.81547 -0.52195,5.60849c-0.30864,2.46913 -0.57529,4.93022 -1.181,7.34251l-0.26291,0.91677c0,0 -0.06091,0.21211 -0.01698,0.45585c-1.98334,-1.10859 -7.30346,0.08081 -9.37394,0.10191c-8.229,-2.49746 -5.78036,-14.08012 -3.40362,-20.14443c0.87915,-0.91893 1.97809,0.69255 2.72382,1.23643c1.06299,0.77526 2.57986,1.31787 3.48982,2.29471c1.90876,2.04904 1.71242,5.66671 2.03082,8.23299z" fill="#e0e0e0"/><path d="M178.50577,292.42937c1.04428,2.5902 3.00975,4.65391 6.22501,5.61048c2.77188,0.02208 5.4174,-0.30275 8.15642,-0.51869c0.16739,-0.0132 0.38615,-0.01679 0.49078,0.11454c0.04909,0.06161 0.09619,0.12953 0.14112,0.20265c0.00487,0.14539 0.05322,0.30873 0.17088,0.48524c0.04102,0.06153 0.08381,0.11489 0.12766,0.16049c0.84643,2.38941 0.50324,7.44107 -0.63344,8.92118c-0.87359,1.13753 -2.37024,1.96294 -3.54272,2.74675c-1.20572,1.06221 -3.01803,0.96493 -4.66931,1.10382c-0.00568,-0.50785 -0.51391,-0.76162 -0.51391,-0.76162l-0.4502,-0.20058c-4.45497,-1.11374 -9.97564,-1.75404 -13.36433,-5.15296c-4.55938,-2.97737 -2.45016,-9.23827 1.51646,-11.86298c1.56412,-1.03498 4.26522,-0.79281 6.03549,-0.79281c0,0 0.14066,-0.00018 0.31009,-0.05552z" fill="#e0b600"/><path d="M187.25851,292.32117c-1.16037,1.19144 -2.40356,1.15174 -3.46159,-0.27954c-0.47513,-0.64273 0.01309,-1.87936 0.18389,-2.52779c0.40693,-1.54483 0.88628,-2.80582 1.68265,-4.20048c0,0 0.44512,-0.77896 1.22408,-0.33384c0.42338,0.24193 0.48515,0.58248 0.45332,0.84298c0.38208,0.10289 0.6633,0.4518 0.6633,0.86638v0.9304c0,1.34846 0.2996,3.62864 -0.74565,4.70188z" fill="#000000"/><path d="M193.38726,287.21579c0.00156,-0.0701 0.03817,-0.89242 0.8971,-0.89242c0.89717,0 0.89717,0.89717 0.89717,0.89717l-0.00634,0.19108c0.02681,0.0978 0.03183,0.19097 0.02248,0.27764c0.13573,1.12417 0.23342,3.15032 -1.2121,3.54043c-0.76467,0.20637 -1.82835,0.13304 -2.32655,-0.48267c-0.82886,-1.02435 0.8602,-2.74208 1.72824,-3.53124z" fill="#000000"/><path d="M177.27133,292.96908c0.89717,0 0.89717,0.89717 0.89717,0.89717v0.13291c-0.00252,1.25663 0.11765,2.96294 -0.13517,4.18394c-0.11726,0.56632 -0.06226,1.36235 -0.57036,1.63858c-0.33693,0.18317 -0.72713,0.07191 -1.11826,-0.07557c1.02698,2.33056 2.44957,4.61463 5.06485,5.49712c1.04432,0.35239 2.83823,0.11197 3.87406,0.07393c1.79389,-0.06588 3.74088,0.05301 5.04349,-1.31925c0,0 0.6344,-0.6344 1.26879,0c0.6344,0.6344 0,1.26879 0,1.26879c-1.77139,1.70878 -3.88358,1.75642 -6.24628,1.84358c-1.31825,0.04863 -3.21203,0.26355 -4.50749,-0.16479c-3.18288,-1.05241 -5.02808,-3.87899 -6.25623,-6.74469l-0.04583,-0.13466c-0.64731,-0.35554 -1.30056,-0.70052 -1.96086,-1.03121l-0.02881,-0.03425l-0.00784,0.01254l-1.05014,-0.65634c-0.26057,-0.15699 -0.43484,-0.44266 -0.43484,-0.76903c0,-0.49549 0.40168,-0.89717 0.89717,-0.89717c0.04253,0 0.08437,0.00296 0.12532,0.00868l1.04927,0.13116l-0.02299,0.18392c0.57754,0.0041 1.09594,0.12717 1.99476,0.36877c0.07511,0.02019 0.70275,0.13905 1.10654,0.39499c-0.00708,-0.23842 0.03358,-0.4828 0.03358,-0.72201c0,-1.03568 0.13525,-2.02294 0.13291,-3.05703v-0.13291c0,0 0,-0.89717 0.89717,-0.89717z" fill="#000000"/></g></g></svg>