<svg version="1.1" xmlns="http://www.w3.org/2000/svg" xmlns:xlink="http://www.w3.org/1999/xlink" width="227.85529" height="204.75698" viewBox="0,0,227.85529,204.75698"><g transform="translate(-225.07235,-103.97209)"><g fill="#ffffff" stroke="none" stroke-width="0.5" stroke-miterlimit="10"><path d="M313.32543,115.77232c-1.35642,-1.89042 -3.48041,-3.16918 -5.42816,-4.39599c-1.13031,-0.03141 -2.25933,-0.04766 -3.38676,-0.04624l0.66246,-3.31229c-0.02053,-0.20767 -0.02017,-0.42542 0.00653,-0.65257l-0.66899,-3.34498c0.48638,0.00057 0.97298,0.00423 1.4598,0.01084l0.00216,-0.01084c0,0 0.09145,0 0.24542,0.01446c0.56094,0.00875 1.12216,0.02134 1.68363,0.03748c0.69928,-0.18187 1.37602,-0.08972 1.9112,0.0682c10.46485,0.44361 21.00311,2.00435 31.42526,2.80814c14.55469,0.29984 29.30232,-0.80042 40.53269,6.39865c7.17935,1.19083 14.34269,2.49331 21.43586,3.90734c3.29185,0.65623 13.4028,3.44954 14.32849,5.10431c1.92437,3.44001 -6.15832,11.32963 -7.50055,13.41767c-3.72447,5.79396 -4.7154,12.23712 -7.06823,18.4877c-0.06622,0.17594 -5.96571,12.00627 -6.11458,12.26218c-1.16238,1.99804 -4.68304,4.3733 -3.20429,6.14998c0.55737,0.66967 1.75046,-0.28931 2.60978,-0.14547c2.38738,0.39962 4.69657,1.17435 7.04487,1.76154c6.46593,1.43653 12.76019,2.7664 19.01838,4.95768c4.56552,1.5986 9.08777,3.3258 13.69371,4.80389c38.72711,12.42783 0.40148,17.78117 -11.0317,20.85925c-6.89905,1.85738 -13.37441,5.76378 -20.16244,8.01363c-0.42375,0.14045 -16.59312,8.19105 -13.7083,10.07111c2.80265,1.82653 11.45182,3.8892 15.06186,6.06354c18.31968,18.80164 7.51742,74.66802 -19.44609,79.48485c-15.59447,2.78584 -30.55651,-27.04887 -37.3863,-37.79828c-3.67563,-5.39558 -7.55332,-10.70486 -11.1133,-16.17714c3.84183,10.89164 -12.8607,23.09073 -21.46085,24.95493c-16.42925,3.56126 -66.79034,5.03114 -80.15599,-3.66478c-14.56334,-11.19061 -16.15805,-38.72942 -0.07661,-51.23257c1.36973,-1.06495 16.60024,-3.09839 33.39673,-4.8762c-1.62265,-0.1874 -2.82054,-0.33568 -3.00495,-0.38632c-6.15938,-1.69148 -15.11852,-6.83972 -19.3821,-11.48059c-1.07561,-1.1708 -1.36026,-2.87477 -1.99216,-4.33366c-1.06584,-2.46077 -2.56116,-4.79674 -3.10037,-7.42366c-0.53921,-2.62692 -0.06161,-5.36307 -0.07465,-8.04471c-0.03333,-6.85726 -0.00089,-13.71572 0.00587,-20.57305c0.01051,-10.65334 -3.11512,-28.38709 1.86119,-38.11608c9.2849,-18.15259 48.67954,-14.46368 72.73741,-7.19092c-1.05286,-2.19612 -2.17592,-4.36826 -3.65596,-6.43098z"/></g></g></svg>